# xmcd
#
# Track frame offsets:
#	150
#	10009
#	22582
#	35753
#	47652
#	58131
#	66584
#	84325
#	94722
#	109447
#	126676
#
# Disc length: 1844 seconds
#
# Revision: 0
# Processed by: cddbd v1.5.1PL0 Copyright (c) Steve Scherf et al.
# Submitted via: audiograbber 1.81.03
#
DISCID=9407320b
DTITLE=Henri Herbert - Henri Herbert - Boogie Woogie
DYEAR=2004
DGENRE=Instrumental
TTITLE0=Henri's Boogie
TTITLE1=Amos Boogie
TTITLE2=Blues
TTITLE3=Mexicali Rose
TTITLE4=Boogie For Champion Jack
TTITLE5=Honky Tonk Train Blues
TTITLE6=Goodnight Irene
TTITLE7=C'est La Vie
TTITLE8=Blueberry Hill
TTITLE9=Big Blue Diamond - One Of Them Old Things
TTITLE10=Boogie Woogie Stomp
EXTD=
EXTT0=
EXTT1=
EXTT2=
EXTT3=
EXTT4=
EXTT5=
EXTT6=
EXTT7=
EXTT8=
EXTT9=
EXTT10=
PLAYORDER=
